# Blender v2.90.1 OBJ File: 'vers.blend'
# www.blender.org
mtllib vers.mtl
o Cube_Cube.001
v -3.000000 0.000000 1.600000
v -3.000000 1.212865 1.600000
v -3.000000 0.000000 0.000000
v -3.000000 1.600000 0.000000
v 3.000000 0.000000 1.600000
v 3.000000 1.212865 1.600000
v 3.000000 0.000000 0.000000
v 3.000000 1.600000 0.000000
v -2.700000 0.000000 0.000000
v -2.700000 1.600000 0.000000
v -2.700000 0.000000 1.600000
v -2.700000 1.212865 1.600000
v 2.715000 1.600000 0.000000
v 2.715000 0.000000 1.600000
v 2.715000 0.000000 0.000000
v 2.715000 1.212865 1.600000
v -3.000000 0.000000 1.440000
v -3.000000 1.212865 1.440000
v 3.000000 0.000000 1.440000
v 3.000000 1.212865 1.440000
v -2.700000 1.212865 1.440000
v -2.700000 0.000000 1.440000
v 2.715000 1.212865 1.440000
v 2.715000 0.000000 1.440000
v -3.000000 1.600000 0.144000
v 3.000000 0.000000 0.144000
v -3.000000 0.000000 0.144000
v 3.000000 1.600000 0.144000
v -2.700000 1.600000 0.144000
v -2.700000 0.000000 0.144000
v 2.715000 1.600000 0.144000
v 2.715000 0.000000 0.144000
v -2.700000 1.134063 0.140142
v -2.700000 1.123581 1.445954
v 2.715000 1.134063 0.140142
v 2.715000 1.123581 1.445954
v 3.000000 0.000000 -1.600001
v 3.000000 1.212865 -1.600001
v 3.000000 0.000000 -0.000001
v 3.000000 1.600000 -0.000001
v -3.000000 0.000000 -1.599999
v -3.000000 1.212865 -1.599999
v -3.000000 0.000000 0.000001
v -3.000000 1.600000 0.000001
v 2.700000 0.000000 -0.000001
v 2.700000 1.600000 -0.000001
v 2.700000 0.000000 -1.600001
v 2.700000 1.212865 -1.600001
v -2.715000 1.600000 0.000001
v -2.715000 0.000000 -1.599999
v -2.715000 0.000000 0.000001
v -2.715000 1.212865 -1.599999
v 3.000000 0.000000 -1.440001
v 3.000000 1.212865 -1.440001
v -3.000000 0.000000 -1.439999
v -3.000000 1.212865 -1.439999
v 2.700000 1.212865 -1.440001
v 2.700000 0.000000 -1.440001
v -2.715000 1.212865 -1.440000
v -2.715000 0.000000 -1.440000
v 3.000000 1.600000 -0.144001
v -3.000000 0.000000 -0.143999
v 3.000000 0.000000 -0.144001
v -3.000000 1.600000 -0.143999
v 2.700000 1.600000 -0.144001
v 2.700000 0.000000 -0.144001
v -2.715000 1.600000 -0.143999
v -2.715000 0.000000 -0.143999
v 2.700000 1.134063 -0.140142
v 2.700000 1.123581 -1.445955
v -2.715000 1.134063 -0.140141
v -2.715000 1.123581 -1.445953
v -3.000000 0.000000 0.792000
v 3.000000 1.406433 0.792000
v -2.700000 1.406433 0.792000
v -2.700000 0.000000 0.792000
v 2.715000 1.406433 0.792000
v 2.715000 0.000000 0.792000
v -3.000000 1.406433 0.792000
v 3.000000 0.000000 0.792000
v -2.700000 1.128822 0.793048
v 2.715000 1.128822 0.793048
v 3.000000 0.000000 -0.792001
v -3.000000 1.406433 -0.791999
v 2.700000 1.406433 -0.792001
v 2.700000 0.000000 -0.792001
v -2.715000 1.406433 -0.791999
v -2.715000 0.000000 -0.791999
v 3.000000 1.406433 -0.792001
v -3.000000 0.000000 -0.791999
v 2.700000 1.128822 -0.793048
v -2.715000 1.128822 -0.793047
v -2.700000 1.374063 0.140142
v 2.715000 1.374063 0.140142
v 2.700000 1.374063 -0.140142
v -2.715000 1.374063 -0.140141
v -2.700000 1.368822 0.793048
v 2.715000 1.368822 0.793048
v 2.700000 1.368822 -0.793048
v -2.715000 1.368822 -0.793047
vt 0.375000 0.488125
vt 0.625000 0.488125
vt 0.625000 0.500000
vt 0.375000 0.500000
vt 0.375000 0.250000
vt 0.625000 0.250000
vt 0.625000 0.262500
vt 0.375000 0.262500
vt 0.636875 0.623750
vt 0.862500 0.623750
vt 0.862500 0.725000
vt 0.636875 0.725000
vt 0.862500 0.725000
vt 0.636875 0.725000
vt 0.375000 0.250000
vt 0.625000 0.250000
vt 0.625000 0.262500
vt 0.375000 0.262500
vt 0.636875 0.623750
vt 0.862500 0.623750
vt 0.862500 0.725000
vt 0.636875 0.725000
vt 0.862500 0.725000
vt 0.636875 0.725000
vt 0.636875 0.522500
vt 0.862500 0.522500
vt 0.862500 0.522500
vt 0.636875 0.522500
vt 0.862500 0.623750
vt 0.636875 0.623750
vt 0.636875 0.522500
vt 0.862500 0.522500
vt 0.862500 0.623750
vt 0.636875 0.623750
vt 0.636875 0.522500
vt 0.862500 0.522500
vt 0.375000 0.227500
vt 0.625000 0.227500
vt 0.375000 0.725000
vt 0.625000 0.725000
vt 0.625000 0.750000
vt 0.375000 0.750000
vt 0.375000 0.987500
vt 0.625000 0.987500
vt 0.625000 1.000000
vt 0.375000 1.000000
vt 0.363125 0.725000
vt 0.363125 0.750000
vt 0.875000 0.725000
vt 0.875000 0.750000
vt 0.862500 0.750000
vt 0.636875 0.750000
vt 0.125000 0.725000
vt 0.137500 0.725000
vt 0.137500 0.750000
vt 0.125000 0.750000
vt 0.375000 0.761875
vt 0.625000 0.761875
vt 0.137500 0.623750
vt 0.363125 0.623750
vt 0.625000 0.623750
vt 0.636875 0.623750
vt 0.125000 0.623750
vt 0.636875 0.522500
vt 0.862500 0.623750
vt 0.875000 0.623750
vt 0.375000 0.623750
vt 0.375000 0.000000
vt 0.625000 0.000000
vt 0.625000 0.025000
vt 0.375000 0.025000
vt 0.625000 0.522500
vt 0.375000 0.522500
vt 0.363125 0.500000
vt 0.363125 0.522500
vt 0.862500 0.500000
vt 0.875000 0.500000
vt 0.875000 0.522500
vt 0.862500 0.522500
vt 0.636875 0.500000
vt 0.125000 0.500000
vt 0.137500 0.500000
vt 0.137500 0.522500
vt 0.125000 0.522500
vt 0.375000 0.126250
vt 0.625000 0.126250
vt 0.375000 0.227500
vt 0.625000 0.227500
vt 0.375000 0.488125
vt 0.625000 0.488125
vt 0.625000 0.500000
vt 0.375000 0.500000
vt 0.375000 0.725000
vt 0.625000 0.725000
vt 0.625000 0.750000
vt 0.375000 0.750000
vt 0.375000 0.987500
vt 0.625000 0.987500
vt 0.625000 1.000000
vt 0.375000 1.000000
vt 0.363125 0.725000
vt 0.363125 0.750000
vt 0.875000 0.725000
vt 0.875000 0.750000
vt 0.862500 0.750000
vt 0.636875 0.750000
vt 0.125000 0.725000
vt 0.137500 0.725000
vt 0.137500 0.750000
vt 0.125000 0.750000
vt 0.375000 0.761875
vt 0.625000 0.761875
vt 0.137500 0.623750
vt 0.363125 0.623750
vt 0.625000 0.623750
vt 0.636875 0.623750
vt 0.125000 0.623750
vt 0.636875 0.522500
vt 0.862500 0.623750
vt 0.875000 0.623750
vt 0.375000 0.623750
vt 0.375000 0.000000
vt 0.625000 0.000000
vt 0.625000 0.025000
vt 0.375000 0.025000
vt 0.625000 0.522500
vt 0.375000 0.522500
vt 0.363125 0.500000
vt 0.363125 0.522500
vt 0.862500 0.500000
vt 0.875000 0.500000
vt 0.875000 0.522500
vt 0.862500 0.522500
vt 0.636875 0.500000
vt 0.125000 0.500000
vt 0.137500 0.500000
vt 0.137500 0.522500
vt 0.125000 0.522500
vt 0.375000 0.126250
vt 0.625000 0.126250
vn 0.0000 0.0000 -1.0000
vn 0.0000 1.0000 0.0080
vn 0.0000 -0.0665 -0.9978
vn 0.0000 0.0000 1.0000
vn -0.0000 1.0000 -0.0080
vn 0.0000 -0.0665 0.9978
vn 1.0000 0.0000 0.0000
vn -1.0000 0.0000 0.0000
vn 0.0000 -1.0000 0.0000
vn 0.0000 1.0000 0.0000
vn 0.0000 0.9582 0.2862
vn -0.0000 0.9582 -0.2862
vn 0.0000 -0.0083 1.0000
vn -0.0000 -0.0083 -1.0000
usemtl vlees_ondergrond
s off
f 15/1/1 13/2/1 8/3/1 7/4/1
f 3/5/1 4/6/1 10/7/1 9/8/1
f 9/8/1 10/7/1 13/2/1 15/1/1
f 82/9/2 81/10/2 34/11/2 36/12/2
f 21/13/3 23/14/3 36/12/3 34/11/3
f 39/15/4 40/16/4 46/17/4 45/18/4
f 92/19/5 91/20/5 70/21/5 72/22/5
f 57/23/6 59/24/6 72/22/6 70/21/6
f 35/25/1 33/26/1 93/27/1 94/28/1
f 94/28/2 93/27/2 97/29/2 98/30/2
f 96/31/5 95/32/5 99/33/5 100/34/5
f 82/9/7 35/25/7 94/28/7 98/30/7
f 92/19/8 71/35/8 96/31/8 100/34/8
f 33/26/8 81/10/8 97/29/8 93/27/8
f 69/36/7 91/20/7 99/33/7 95/32/7
f 71/35/4 69/36/4 95/32/4 96/31/4
usemtl buitenkanten
f 27/37/8 25/38/8 4/6/8 3/5/8
f 19/39/7 20/40/7 6/41/7 5/42/7
f 11/43/4 12/44/4 2/45/4 1/46/4
f 24/47/9 19/39/9 5/42/9 14/48/9
f 21/13/10 18/49/10 2/50/10 12/51/10
f 23/14/10 21/13/10 12/51/10 16/52/10
f 17/53/9 22/54/9 11/55/9 1/56/9
f 14/57/4 16/58/4 12/44/4 11/43/4
f 5/42/4 6/41/4 16/58/4 14/57/4
f 20/40/10 23/14/10 16/52/10 6/41/10
f 22/54/9 24/47/9 14/48/9 11/55/9
f 76/59/9 78/60/9 24/47/9 22/54/9
f 74/61/11 77/62/11 23/14/11 20/40/11
f 73/63/9 76/59/9 22/54/9 17/53/9
f 77/62/8 31/64/8 35/25/8 82/9/8
f 75/65/11 79/66/11 18/49/11 21/13/11
f 78/60/9 80/67/9 19/39/9 24/47/9
f 80/67/7 74/61/7 20/40/7 19/39/7
f 1/68/8 2/69/8 18/70/8 17/71/8
f 7/4/7 8/3/7 28/72/7 26/73/7
f 15/74/9 7/4/9 26/73/9 32/75/9
f 10/76/10 4/77/10 25/78/10 29/79/10
f 13/80/10 10/76/10 29/79/10 31/64/10
f 3/81/9 9/82/9 30/83/9 27/84/9
f 8/3/10 13/80/10 31/64/10 28/72/10
f 9/82/9 15/74/9 32/75/9 30/83/9
f 73/85/8 79/86/8 25/38/8 27/37/8
f 75/65/7 21/13/7 34/11/7 81/10/7
f 63/87/7 61/88/7 40/16/7 39/15/7
f 51/89/4 49/90/4 44/91/4 43/92/4
f 55/93/8 56/94/8 42/95/8 41/96/8
f 47/97/1 48/98/1 38/99/1 37/100/1
f 60/101/9 55/93/9 41/96/9 50/102/9
f 57/23/10 54/103/10 38/104/10 48/105/10
f 59/24/10 57/23/10 48/105/10 52/106/10
f 53/107/9 58/108/9 47/109/9 37/110/9
f 50/111/1 52/112/1 48/98/1 47/97/1
f 41/96/1 42/95/1 52/112/1 50/111/1
f 56/94/10 59/24/10 52/106/10 42/95/10
f 58/108/9 60/101/9 50/102/9 47/109/9
f 45/18/4 46/17/4 49/90/4 51/89/4
f 86/113/9 88/114/9 60/101/9 58/108/9
f 84/115/12 87/116/12 59/24/12 56/94/12
f 83/117/9 86/113/9 58/108/9 53/107/9
f 87/116/7 67/118/7 71/35/7 92/19/7
f 85/119/12 89/120/12 54/103/12 57/23/12
f 88/114/9 90/121/9 55/93/9 60/101/9
f 90/121/8 84/115/8 56/94/8 55/93/8
f 37/122/7 38/123/7 54/124/7 53/125/7
f 43/92/8 44/91/8 64/126/8 62/127/8
f 51/128/9 43/92/9 62/127/9 68/129/9
f 46/130/10 40/131/10 61/132/10 65/133/10
f 49/134/10 46/130/10 65/133/10 67/118/10
f 39/135/9 45/136/9 66/137/9 63/138/9
f 44/91/10 49/134/10 67/118/10 64/126/10
f 45/136/9 51/128/9 68/129/9 66/137/9
f 83/139/7 89/140/7 61/88/7 63/87/7
f 85/119/8 57/23/8 70/21/8 91/20/8
f 29/79/7 75/65/7 81/10/7 33/26/7
f 17/71/8 18/70/8 79/86/8 73/85/8
f 26/73/7 28/72/7 74/61/7 80/67/7
f 32/75/9 26/73/9 80/67/9 78/60/9
f 29/79/11 25/78/11 79/66/11 75/65/11
f 23/14/8 77/62/8 82/9/8 36/12/8
f 27/84/9 30/83/9 76/59/9 73/63/9
f 28/72/11 31/64/11 77/62/11 74/61/11
f 30/83/9 32/75/9 78/60/9 76/59/9
f 65/133/8 85/119/8 91/20/8 69/36/8
f 53/125/7 54/124/7 89/140/7 83/139/7
f 62/127/8 64/126/8 84/115/8 90/121/8
f 68/129/9 62/127/9 90/121/9 88/114/9
f 65/133/12 61/132/12 89/120/12 85/119/12
f 59/24/7 87/116/7 92/19/7 72/22/7
f 63/138/9 66/137/9 86/113/9 83/117/9
f 64/126/12 67/118/12 87/116/12 84/115/12
f 66/137/9 68/129/9 88/114/9 86/113/9
usemtl vlees_ondergrond_schaduw
f 31/64/13 29/79/13 33/26/13 35/25/13
f 67/118/14 65/133/14 69/36/14 71/35/14
f 81/10/4 82/9/4 98/30/4 97/29/4
f 91/20/1 92/19/1 100/34/1 99/33/1
