# Blender v2.90.1 OBJ File: 'vers.blend'
# www.blender.org
mtllib versv2.mtl
o Cube_Cube.001
v -3.000000 0.000000 2.000000
v -3.000000 1.212865 2.000000
v -3.000000 0.000000 0.000000
v -3.000000 1.600000 0.000000
v 3.000000 0.000000 2.000000
v 3.000000 1.212865 2.000000
v 3.000000 0.000000 0.000000
v 3.000000 1.600000 0.000000
v -2.700000 0.000000 0.000000
v -2.700000 1.600000 0.000000
v -2.700000 0.000000 2.000000
v -2.700000 1.212865 2.000000
v 2.715000 1.600000 0.000000
v 2.715000 0.000000 2.000000
v 2.715000 0.000000 0.000000
v 2.715000 1.212865 2.000000
v -3.000000 0.000000 1.800000
v -3.000000 1.212865 1.800000
v 3.000000 0.000000 1.800000
v 3.000000 1.212865 1.800000
v -2.700000 1.212865 1.800000
v -2.700000 0.000000 1.800000
v 2.715000 1.212865 1.800000
v 2.715000 0.000000 1.800000
v -3.000000 1.600000 0.180000
v 3.000000 0.000000 0.180000
v -3.000000 0.000000 0.180000
v 3.000000 1.600000 0.180000
v -2.700000 1.600000 0.180000
v -2.700000 0.000000 0.180000
v 2.715000 1.600000 0.180000
v 2.715000 0.000000 0.180000
v -2.700000 1.134063 0.175177
v -2.700000 1.123581 1.807442
v 2.715000 1.134063 0.175177
v 2.715000 1.123581 1.807442
vt 0.375000 0.227500
vt 0.625000 0.227500
vt 0.625000 0.250000
vt 0.375000 0.250000
vt 0.375000 0.488125
vt 0.625000 0.488125
vt 0.625000 0.500000
vt 0.375000 0.500000
vt 0.375000 0.725000
vt 0.625000 0.725000
vt 0.625000 0.750000
vt 0.375000 0.750000
vt 0.375000 0.987500
vt 0.625000 0.987500
vt 0.625000 1.000000
vt 0.375000 1.000000
vt 0.363125 0.725000
vt 0.363125 0.750000
vt 0.862500 0.725000
vt 0.875000 0.725000
vt 0.875000 0.750000
vt 0.862500 0.750000
vt 0.636875 0.725000
vt 0.636875 0.750000
vt 0.125000 0.725000
vt 0.137500 0.725000
vt 0.137500 0.750000
vt 0.125000 0.750000
vt 0.375000 0.761875
vt 0.625000 0.761875
vt 0.625000 0.262500
vt 0.375000 0.262500
vt 0.137500 0.522500
vt 0.363125 0.522500
vt 0.625000 0.522500
vt 0.636875 0.522500
vt 0.125000 0.522500
vt 0.636875 0.522500
vt 0.636875 0.725000
vt 0.862500 0.522500
vt 0.875000 0.522500
vt 0.375000 0.522500
vt 0.375000 0.000000
vt 0.625000 0.000000
vt 0.625000 0.025000
vt 0.375000 0.025000
vt 0.363125 0.500000
vt 0.862500 0.500000
vt 0.875000 0.500000
vt 0.636875 0.500000
vt 0.125000 0.500000
vt 0.137500 0.500000
vt 0.862500 0.522500
vt 0.862500 0.725000
vn -1.0000 0.0000 0.0000
vn 0.0000 0.0000 -1.0000
vn 1.0000 0.0000 0.0000
vn 0.0000 0.0000 1.0000
vn 0.0000 -1.0000 0.0000
vn 0.0000 1.0000 0.0000
vn 0.0000 0.9726 0.2324
vn 0.0000 1.0000 0.0064
vn 0.0000 -0.0831 -0.9965
vn 0.0000 -0.0104 0.9999
usemtl Material
s off
f 27/1/1 25/2/1 4/3/1 3/4/1
f 15/5/2 13/6/2 8/7/2 7/8/2
f 19/9/3 20/10/3 6/11/3 5/12/3
f 11/13/4 12/14/4 2/15/4 1/16/4
f 24/17/5 19/9/5 5/12/5 14/18/5
f 21/19/6 18/20/6 2/21/6 12/22/6
f 23/23/6 21/19/6 12/22/6 16/24/6
f 17/25/5 22/26/5 11/27/5 1/28/5
f 14/29/4 16/30/4 12/14/4 11/13/4
f 3/4/2 4/3/2 10/31/2 9/32/2
f 5/12/4 6/11/4 16/30/4 14/29/4
f 20/10/6 23/23/6 16/24/6 6/11/6
f 22/26/5 24/17/5 14/18/5 11/27/5
f 9/32/2 10/31/2 13/6/2 15/5/2
f 30/33/5 32/34/5 24/17/5 22/26/5
f 28/35/7 31/36/7 23/23/7 20/10/7
f 27/37/5 30/33/5 22/26/5 17/25/5
f 23/23/1 31/36/1 35/38/1 36/39/1
f 29/40/7 25/41/7 18/20/7 21/19/7
f 32/34/5 26/42/5 19/9/5 24/17/5
f 26/42/3 28/35/3 20/10/3 19/9/3
f 1/43/1 2/44/1 18/45/1 17/46/1
f 7/8/3 8/7/3 28/35/3 26/42/3
f 15/47/5 7/8/5 26/42/5 32/34/5
f 10/48/6 4/49/6 25/41/6 29/40/6
f 13/50/6 10/48/6 29/40/6 31/36/6
f 3/51/5 9/52/5 30/33/5 27/37/5
f 8/7/6 13/50/6 31/36/6 28/35/6
f 9/52/5 15/47/5 32/34/5 30/33/5
f 17/46/1 18/45/1 25/2/1 27/1/1
f 35/38/8 33/53/8 34/54/8 36/39/8
f 29/40/3 21/19/3 34/54/3 33/53/3
f 21/19/9 23/23/9 36/39/9 34/54/9
f 31/36/10 29/40/10 33/53/10 35/38/10
o Cube.001_Cube.003
v 3.000000 0.000000 -2.000001
v 3.000000 1.212865 -2.000001
v 3.000000 0.000000 -0.000001
v 3.000000 1.600000 -0.000001
v -3.000000 0.000000 -1.999999
v -3.000000 1.212865 -1.999999
v -3.000000 0.000000 0.000001
v -3.000000 1.600000 0.000001
v 2.700000 0.000000 -0.000001
v 2.700000 1.600000 -0.000001
v 2.700000 0.000000 -2.000001
v 2.700000 1.212865 -2.000001
v -2.715000 1.600000 0.000001
v -2.715000 0.000000 -1.999999
v -2.715000 0.000000 0.000001
v -2.715000 1.212865 -1.999999
v 3.000000 0.000000 -1.800001
v 3.000000 1.212865 -1.800001
v -3.000000 0.000000 -1.799999
v -3.000000 1.212865 -1.799999
v 2.700000 1.212865 -1.800001
v 2.700000 0.000000 -1.800001
v -2.715000 1.212865 -1.799999
v -2.715000 0.000000 -1.799999
v 3.000000 1.600000 -0.180001
v -3.000000 0.000000 -0.179999
v 3.000000 0.000000 -0.180001
v -3.000000 1.600000 -0.179999
v 2.700000 1.600000 -0.180001
v 2.700000 0.000000 -0.180001
v -2.715000 1.600000 -0.179999
v -2.715000 0.000000 -0.179999
v 2.700000 1.134063 -0.175178
v 2.700000 1.123581 -1.807443
v -2.715000 1.134063 -0.175176
v -2.715000 1.123581 -1.807441
vt 0.375000 0.227500
vt 0.625000 0.227500
vt 0.625000 0.250000
vt 0.375000 0.250000
vt 0.375000 0.488125
vt 0.625000 0.488125
vt 0.625000 0.500000
vt 0.375000 0.500000
vt 0.375000 0.725000
vt 0.625000 0.725000
vt 0.625000 0.750000
vt 0.375000 0.750000
vt 0.375000 0.987500
vt 0.625000 0.987500
vt 0.625000 1.000000
vt 0.375000 1.000000
vt 0.363125 0.725000
vt 0.363125 0.750000
vt 0.862500 0.725000
vt 0.875000 0.725000
vt 0.875000 0.750000
vt 0.862500 0.750000
vt 0.636875 0.725000
vt 0.636875 0.750000
vt 0.125000 0.725000
vt 0.137500 0.725000
vt 0.137500 0.750000
vt 0.125000 0.750000
vt 0.375000 0.761875
vt 0.625000 0.761875
vt 0.625000 0.262500
vt 0.375000 0.262500
vt 0.137500 0.522500
vt 0.363125 0.522500
vt 0.625000 0.522500
vt 0.636875 0.522500
vt 0.125000 0.522500
vt 0.636875 0.522500
vt 0.636875 0.725000
vt 0.862500 0.522500
vt 0.875000 0.522500
vt 0.375000 0.522500
vt 0.375000 0.000000
vt 0.625000 0.000000
vt 0.625000 0.025000
vt 0.375000 0.025000
vt 0.363125 0.500000
vt 0.862500 0.500000
vt 0.875000 0.500000
vt 0.636875 0.500000
vt 0.125000 0.500000
vt 0.137500 0.500000
vt 0.862500 0.522500
vt 0.862500 0.725000
vn 1.0000 0.0000 0.0000
vn 0.0000 0.0000 1.0000
vn -1.0000 0.0000 0.0000
vn 0.0000 0.0000 -1.0000
vn 0.0000 -1.0000 0.0000
vn 0.0000 1.0000 0.0000
vn -0.0000 0.9726 -0.2324
vn -0.0000 1.0000 -0.0064
vn 0.0000 -0.0831 0.9965
vn -0.0000 -0.0104 -0.9999
usemtl Material.003
s off
f 63/55/11 61/56/11 40/57/11 39/58/11
f 51/59/12 49/60/12 44/61/12 43/62/12
f 55/63/13 56/64/13 42/65/13 41/66/13
f 47/67/14 48/68/14 38/69/14 37/70/14
f 60/71/15 55/63/15 41/66/15 50/72/15
f 57/73/16 54/74/16 38/75/16 48/76/16
f 59/77/16 57/73/16 48/76/16 52/78/16
f 53/79/15 58/80/15 47/81/15 37/82/15
f 50/83/14 52/84/14 48/68/14 47/67/14
f 39/58/12 40/57/12 46/85/12 45/86/12
f 41/66/14 42/65/14 52/84/14 50/83/14
f 56/64/16 59/77/16 52/78/16 42/65/16
f 58/80/15 60/71/15 50/72/15 47/81/15
f 45/86/12 46/85/12 49/60/12 51/59/12
f 66/87/15 68/88/15 60/71/15 58/80/15
f 64/89/17 67/90/17 59/77/17 56/64/17
f 63/91/15 66/87/15 58/80/15 53/79/15
f 59/77/11 67/90/11 71/92/11 72/93/11
f 65/94/17 61/95/17 54/74/17 57/73/17
f 68/88/15 62/96/15 55/63/15 60/71/15
f 62/96/13 64/89/13 56/64/13 55/63/13
f 37/97/11 38/98/11 54/99/11 53/100/11
f 43/62/13 44/61/13 64/89/13 62/96/13
f 51/101/15 43/62/15 62/96/15 68/88/15
f 46/102/16 40/103/16 61/95/16 65/94/16
f 49/104/16 46/102/16 65/94/16 67/90/16
f 39/105/15 45/106/15 66/87/15 63/91/15
f 44/61/16 49/104/16 67/90/16 64/89/16
f 45/106/15 51/101/15 68/88/15 66/87/15
f 53/100/11 54/99/11 61/56/11 63/55/11
f 71/92/18 69/107/18 70/108/18 72/93/18
f 65/94/13 57/73/13 70/108/13 69/107/13
f 57/73/19 59/77/19 72/93/19 70/108/19
f 67/90/20 65/94/20 69/107/20 71/92/20
